<svg width="20" height="21" viewBox="0 0 20 21" fill="none" xmlns="http://www.w3.org/2000/svg">
<mask id="path-1-outside-1" maskUnits="userSpaceOnUse" x="-1" y="0" width="22" height="21" fill="black">
<rect fill="white" x="-1" width="22" height="21"/>
<path d="M3.00173 18.5027C4.63462 16.8857 6.25795 15.2598 7.88062 13.6319L9.45117 12.0595C9.54583 11.9651 9.64378 11.8729 9.7579 11.7659L10.0006 11.5367L10.2434 11.7659C10.3575 11.8726 10.4554 11.9654 10.5501 12.0592L12.12 13.6319C13.7433 15.2595 15.3667 16.886 16.9989 18.502C17.2218 18.7233 17.5078 18.8983 17.764 18.9697C18.1694 19.0839 18.6252 18.8663 18.8429 18.47C19.0698 18.0571 19.044 17.6684 18.7644 17.2823C18.6987 17.1899 18.613 17.1063 18.5236 17.0181L17.1565 15.6465L12.0405 10.5092C11.9544 10.424 11.873 10.3352 11.7836 10.2381L11.5537 9.99138L11.8219 9.70603C11.9069 9.61488 11.9868 9.52835 12.0699 9.44512L14.2872 7.23267C15.7232 5.79998 17.1595 4.36663 18.5919 2.9303C18.9345 2.58682 19.0731 2.14394 18.9629 1.74597C18.865 1.39159 18.5846 1.13233 18.1918 1.03457C17.7782 0.930869 17.4454 1.05769 17.0141 1.49034C15.2377 3.26783 13.4597 5.04235 11.681 6.81588L10.5616 7.93152C10.4762 8.01672 10.3898 8.09797 10.2971 8.1845L10.0128 8.454L9.99206 8.43451L9.85684 8.33081L9.70216 8.1845C9.61014 8.09863 9.52307 8.01672 9.43798 7.93218L8.31828 6.81588C6.54126 5.04235 4.76292 3.26849 2.98755 1.48968C2.55484 1.05703 2.22107 0.930869 1.80881 1.03391C1.41699 1.13167 1.13534 1.39126 1.03705 1.74564C0.926896 2.14361 1.06575 2.58649 1.40842 2.92964C2.84079 4.36663 4.27711 5.79899 5.7131 7.23234L7.93009 9.44413C8.0132 9.52769 8.09368 9.61455 8.17811 9.70537L8.44624 9.99072L8.21636 10.2374C8.12699 10.3342 8.04453 10.4234 7.95944 10.5083L1.47669 17.0178C1.38665 17.1066 1.30156 17.1899 1.23593 17.2817C0.95559 17.6687 0.930194 18.0575 1.15677 18.4703C1.37445 18.8663 1.83322 19.0833 2.23591 18.97C2.49284 18.8983 2.77878 18.7233 3.00173 18.5027Z"/>
</mask>
<path d="M3.00173 18.5027C4.63462 16.8857 6.25795 15.2598 7.88062 13.6319L9.45117 12.0595C9.54583 11.9651 9.64378 11.8729 9.7579 11.7659L10.0006 11.5367L10.2434 11.7659C10.3575 11.8726 10.4554 11.9654 10.5501 12.0592L12.12 13.6319C13.7433 15.2595 15.3667 16.886 16.9989 18.502C17.2218 18.7233 17.5078 18.8983 17.764 18.9697C18.1694 19.0839 18.6252 18.8663 18.8429 18.47C19.0698 18.0571 19.044 17.6684 18.7644 17.2823C18.6987 17.1899 18.613 17.1063 18.5236 17.0181L17.1565 15.6465L12.0405 10.5092C11.9544 10.424 11.873 10.3352 11.7836 10.2381L11.5537 9.99138L11.8219 9.70603C11.9069 9.61488 11.9868 9.52835 12.0699 9.44512L14.2872 7.23267C15.7232 5.79998 17.1595 4.36663 18.5919 2.9303C18.9345 2.58682 19.0731 2.14394 18.9629 1.74597C18.865 1.39159 18.5846 1.13233 18.1918 1.03457C17.7782 0.930869 17.4454 1.05769 17.0141 1.49034C15.2377 3.26783 13.4597 5.04235 11.681 6.81588L10.5616 7.93152C10.4762 8.01672 10.3898 8.09797 10.2971 8.1845L10.0128 8.454L9.99206 8.43451L9.85684 8.33081L9.70216 8.1845C9.61014 8.09863 9.52307 8.01672 9.43798 7.93218L8.31828 6.81588C6.54126 5.04235 4.76292 3.26849 2.98755 1.48968C2.55484 1.05703 2.22107 0.930869 1.80881 1.03391C1.41699 1.13167 1.13534 1.39126 1.03705 1.74564C0.926896 2.14361 1.06575 2.58649 1.40842 2.92964C2.84079 4.36663 4.27711 5.79899 5.7131 7.23234L7.93009 9.44413C8.0132 9.52769 8.09368 9.61455 8.17811 9.70537L8.44624 9.99072L8.21636 10.2374C8.12699 10.3342 8.04453 10.4234 7.95944 10.5083L1.47669 17.0178C1.38665 17.1066 1.30156 17.1899 1.23593 17.2817C0.95559 17.6687 0.930194 18.0575 1.15677 18.4703C1.37445 18.8663 1.83322 19.0833 2.23591 18.97C2.49284 18.8983 2.77878 18.7233 3.00173 18.5027Z" fill="#1D4076"/>
<path d="M3.00173 18.5027C4.63462 16.8857 6.25795 15.2598 7.88062 13.6319L9.45117 12.0595C9.54583 11.9651 9.64378 11.8729 9.7579 11.7659L10.0006 11.5367L10.2434 11.7659C10.3575 11.8726 10.4554 11.9654 10.5501 12.0592L12.12 13.6319C13.7433 15.2595 15.3667 16.886 16.9989 18.502C17.2218 18.7233 17.5078 18.8983 17.764 18.9697C18.1694 19.0839 18.6252 18.8663 18.8429 18.47C19.0698 18.0571 19.044 17.6684 18.7644 17.2823C18.6987 17.1899 18.613 17.1063 18.5236 17.0181L17.1565 15.6465L12.0405 10.5092C11.9544 10.424 11.873 10.3352 11.7836 10.2381L11.5537 9.99138L11.8219 9.70603C11.9069 9.61488 11.9868 9.52835 12.0699 9.44512L14.2872 7.23267C15.7232 5.79998 17.1595 4.36663 18.5919 2.9303C18.9345 2.58682 19.0731 2.14394 18.9629 1.74597C18.865 1.39159 18.5846 1.13233 18.1918 1.03457C17.7782 0.930869 17.4454 1.05769 17.0141 1.49034C15.2377 3.26783 13.4597 5.04235 11.681 6.81588L10.5616 7.93152C10.4762 8.01672 10.3898 8.09797 10.2971 8.1845L10.0128 8.454L9.99206 8.43451L9.85684 8.33081L9.70216 8.1845C9.61014 8.09863 9.52307 8.01672 9.43798 7.93218L8.31828 6.81588C6.54126 5.04235 4.76292 3.26849 2.98755 1.48968C2.55484 1.05703 2.22107 0.930869 1.80881 1.03391C1.41699 1.13167 1.13534 1.39126 1.03705 1.74564C0.926896 2.14361 1.06575 2.58649 1.40842 2.92964C2.84079 4.36663 4.27711 5.79899 5.7131 7.23234L7.93009 9.44413C8.0132 9.52769 8.09368 9.61455 8.17811 9.70537L8.44624 9.99072L8.21636 10.2374C8.12699 10.3342 8.04453 10.4234 7.95944 10.5083L1.47669 17.0178C1.38665 17.1066 1.30156 17.1899 1.23593 17.2817C0.95559 17.6687 0.930194 18.0575 1.15677 18.4703C1.37445 18.8663 1.83322 19.0833 2.23591 18.97C2.49284 18.8983 2.77878 18.7233 3.00173 18.5027Z" stroke="#1D4076" stroke-width="2" mask="url(#path-1-outside-1)"/>
</svg>
