<svg width="31" height="17" viewBox="0 0 31 17" fill="none" xmlns="http://www.w3.org/2000/svg">
<path fill-rule="evenodd" clip-rule="evenodd" d="M30.0536 11.6372C29.7321 12.0662 29.4107 12.5489 29.0357 12.9243C27.9107 14.0505 26.7857 15.1767 25.6607 16.3028C25.2321 16.7319 24.8036 17.1609 24.1607 16.8927C23.625 16.6782 23.625 16.0883 23.625 15.5521C23.625 15.4448 23.625 15.3912 23.5714 15.0694C22.875 16.4101 21.75 16.4637 20.5714 16.4637C14.625 16.4637 8.67857 16.4101 2.73214 16.4637C1.39286 16.4637 0.482143 15.9811 0 14.7476C0 10.4038 0 6.11356 0 1.76972C0.696429 0.321766 1.125 0 2.73214 0C8.89286 0 15.0536 0 21.2679 0C22.9286 0 23.7321 0.804416 23.7857 2.46688C23.7857 3.53943 23.7857 4.61199 23.7857 5.68454C24.6429 5.25552 24.9643 5.30915 25.6071 5.95268C26.8929 7.23975 28.1786 8.52681 29.4643 9.81388C29.7321 10.082 29.8929 10.4574 30.1071 10.7792C30.0536 11.1009 30.0536 11.3691 30.0536 11.6372ZM11.9464 1.07256C8.83929 1.07256 5.73214 1.07256 2.67857 1.07256C2.46429 1.07256 2.19643 1.01893 2.08929 1.12618C1.76786 1.34069 1.44643 1.60883 1.23214 1.9306C1.17857 2.03785 1.5 2.46688 1.71429 2.62776C4.92857 4.71924 8.14286 6.7571 11.3571 8.84858C11.7857 9.11672 12.0536 9.11672 12.4821 8.84858C15.6964 6.7571 18.9643 4.71924 22.1786 2.62776C22.7679 2.25237 22.7679 1.71609 22.1786 1.34069C21.9107 1.17981 21.5893 1.07256 21.2679 1.07256C18.1607 1.07256 15.0536 1.07256 11.9464 1.07256ZM22.5536 14.5868C21.3214 14.5868 20.1964 14.5331 19.125 14.5868C16.9821 14.694 16.2321 14.1577 16.3393 11.7445C16.3929 9.97476 16.3393 9.97476 14.8393 9.11672C14.6786 9.00946 14.3571 9.00946 14.1429 9.11672C13.5536 9.43849 13.0179 9.81388 12.4286 10.1893C12.0536 10.4574 11.7857 10.4574 11.4107 10.1893C10.8214 9.81388 10.2857 9.43849 9.64286 9.06309C9.48214 8.95584 9.21428 8.95584 9.05357 9.06309C6.48214 10.6719 3.96429 12.2808 1.44643 13.9432C1.28571 14.0505 1.17857 14.4259 1.23214 14.5868C1.44643 15.2303 1.98214 15.3375 2.57143 15.3375C7.44643 15.3375 12.3214 15.3375 17.1964 15.3375C18.5893 15.3375 19.9286 15.3375 21.3214 15.3375C21.8571 15.3375 22.2857 15.2303 22.5536 14.5868ZM24.75 6.70347C24.75 7.29338 24.75 7.66877 24.75 8.04416C24.75 8.79495 24.6429 8.95584 23.8393 8.95584C22.0179 8.95584 20.25 8.95584 18.4286 8.95584C17.5714 8.95584 17.4107 9.11672 17.4107 10.0284C17.4107 10.8328 17.4107 11.6372 17.4107 12.4416C17.4107 13.2997 17.5714 13.5142 18.4821 13.5142C20.3036 13.5142 22.0714 13.5142 23.8929 13.5142C24.6964 13.5142 24.75 13.6215 24.75 14.4259C24.75 14.8013 24.75 15.1767 24.75 15.7129C25.9286 14.5331 27 13.4606 28.0179 12.4416C29.1964 11.2618 29.1964 11.2618 28.0179 10.082C27 9.00946 25.9286 7.93691 24.75 6.70347ZM8.30357 8.20505C5.94643 6.64984 3.58929 5.20189 1.23214 3.64669C1.23214 6.7571 1.23214 9.70662 1.23214 12.7634C3.58929 11.2082 5.94643 9.76025 8.30357 8.20505ZM16.5 8.84858C16.9286 8.04416 17.6786 7.82965 18.4821 7.88328C19.0179 7.93691 19.6071 7.88328 20.1429 7.88328C20.9464 7.88328 21.75 7.88328 22.5536 7.88328C22.5536 6.43533 22.5536 5.09464 22.5536 3.70032C20.1429 5.25552 17.8393 6.70347 15.4821 8.20505C15.8571 8.41956 16.125 8.58044 16.5 8.84858Z" fill="white"/>
</svg>
