<svg width="197" height="53" viewBox="0 0 197 53" fill="none" xmlns="http://www.w3.org/2000/svg">
<path d="M6.87602 13.84H10.8L17.028 43H13.176L11.844 35.656H5.90402L4.50002 43H0.684021L6.87602 13.84ZM11.304 32.74L8.85602 19.6L6.44402 32.74H11.304ZM27.5108 43.324C25.4708 43.324 23.8748 42.916 22.7228 42.1C21.5948 41.284 20.8148 40.144 20.3828 38.68C19.9508 37.216 19.7348 35.38 19.7348 33.172V13.84H23.6228V33.352C23.6228 35.56 23.8748 37.24 24.3788 38.392C24.9068 39.544 25.9508 40.12 27.5108 40.12C29.0708 40.12 30.1028 39.544 30.6068 38.392C31.1348 37.24 31.3988 35.56 31.3988 33.352V13.84H35.2508V33.172C35.2508 35.38 35.0348 37.216 34.6028 38.68C34.1708 40.144 33.3908 41.284 32.2628 42.1C31.1348 42.916 29.5508 43.324 27.5108 43.324ZM42.7376 16.864H37.8056V13.84H51.5936V16.864H46.8056V43H42.7376V16.864ZM61.8567 43.324C59.0007 43.324 56.9487 42.52 55.7007 40.912C54.4767 39.28 53.8647 36.928 53.8647 33.856V22.804C53.8647 19.78 54.4887 17.488 55.7367 15.928C56.9847 14.368 59.0247 13.588 61.8567 13.588C64.6887 13.588 66.7167 14.38 67.9407 15.964C69.1887 17.524 69.8127 19.804 69.8127 22.804V33.892C69.8127 36.916 69.1887 39.244 67.9407 40.876C66.6927 42.508 64.6647 43.324 61.8567 43.324ZM61.8567 40.12C63.3687 40.12 64.3887 39.676 64.9167 38.788C65.4447 37.9 65.7087 36.556 65.7087 34.756V21.976C65.7087 20.2 65.4447 18.892 64.9167 18.052C64.3887 17.188 63.3687 16.756 61.8567 16.756C60.3207 16.756 59.2887 17.188 58.7607 18.052C58.2327 18.892 57.9687 20.2 57.9687 21.976V34.756C57.9687 36.556 58.2327 37.9 58.7607 38.788C59.2887 39.676 60.3207 40.12 61.8567 40.12Z" fill="white"/>
<path d="M0 48.5H80" stroke="white" stroke-width="3"/>
<path d="M0 5.5H80" stroke="white" stroke-width="3"/>
<path d="M89 37.5H169" stroke="white" stroke-width="3"/>
<path d="M121 17L169 17" stroke="white" stroke-width="3"/>
<path d="M121 27L169 27" stroke="white" stroke-width="3"/>
<path d="M89 5.5H169" stroke="white" stroke-width="3"/>
<path d="M89 48.5H169" stroke="white" stroke-width="3"/>
<path d="M102.5 13L104.408 18.8734L110.584 18.8734L105.588 22.5033L107.496 28.3766L102.5 24.7467L97.5038 28.3766L99.4122 22.5033L94.416 18.8734L100.592 18.8734L102.5 13Z" fill="white"/>
</svg>
