<svg width="390" height="750" viewBox="0 0 390 750" fill="none" xmlns="http://www.w3.org/2000/svg">
<path d="M352.067 401.615V392.315C352.067 391.188 352.573 390.119 353.446 389.405C356.181 387.167 354.599 382.733 351.065 382.733H345.959C344.861 382.733 343.794 382.372 342.922 381.705L332.714 373.899C330.855 372.477 330.23 369.956 331.211 367.832L333.078 363.786C334.048 361.684 333.448 359.19 331.627 357.76L322.6 350.667L296.938 330.992C296.713 330.82 296.503 330.629 296.311 330.421L276.532 309.06C275.546 307.995 274.058 307.552 272.651 307.904L265.493 309.693C262.928 310.335 261.319 307.006 263.415 305.394C264.502 304.557 264.686 302.988 263.82 301.923L254.849 290.88C254.378 290.301 253.783 289.834 253.108 289.514L206.698 267.531C205.445 266.937 204.001 266.891 202.713 267.402L147.051 289.503C146.232 289.829 145.341 289.931 144.468 289.801L31.5738 272.951C30.3464 272.768 29.0948 273.048 28.0622 273.736L21.4932 278.116C20.1022 279.043 19.2667 280.604 19.2667 282.276V305.134C19.2667 306.535 19.8549 307.873 20.888 308.82L27.6121 314.983C28.8893 316.154 29.4693 317.903 29.1451 319.605L19.9384 367.94C19.537 370.048 20.5248 372.176 22.3935 373.231L52.2636 390.08C52.7945 390.38 53.3757 390.58 53.9785 390.67L86.8818 395.606C87.4454 395.69 87.9903 395.87 88.4931 396.139L126.297 416.301C126.587 416.455 126.892 416.581 127.206 416.676L180.627 432.787C181.095 432.928 181.582 433 182.071 433H199.533H215.133H251.898C253.32 433 254.675 432.394 255.624 431.334L267.917 417.594C268.538 416.901 269.34 416.394 270.233 416.132L282.909 412.403C283.367 412.268 283.842 412.2 284.32 412.2H310.467H342.04C343.457 412.2 344.808 411.598 345.756 410.545L350.783 404.959C351.609 404.041 352.067 402.85 352.067 401.615Z" stroke="black"/>
</svg>
