<svg width="880" height="467" viewBox="0 0 880 467" fill="none" xmlns="http://www.w3.org/2000/svg">
<path d="M605 12.5L503 18.5C503 18.5 546 68.5 554.5 134C563 199.5 564 256.5 564 256.5C620.507 256.599 652.591 258.16 710.5 263.5C710.5 263.5 708 201.5 680.5 121C653 40.5 605 12.5 605 12.5Z" fill="#FD0000" stroke="black"/>
<path d="M148 2L246.5 9C246.5 9 276 69 278 138C280 207 275 264 275 264C275 264 231.5 264 148 273C64.5 282 30 290 30 290C30 290 24.6368 277.619 18.7064 264C6.50001 248.5 9.53328 239.825 6.50001 233C-1.49993 215 0.999986 215 0.999986 215C0.999986 215 54.5217 199 99 137C143.478 75 148 2 148 2Z" fill="#FD0000"/>
<path d="M564 256.5C562.88 139.789 553.956 82.9674 503 18L446 21L365 18C407.626 83.0118 417.754 135.411 412 256.5H564Z" fill="#FB0404" stroke="black"/>
<path d="M364.5 18.5L246 10C275.992 74.1573 282.355 129.72 275.5 263L411 257C416.625 135.15 408.577 80.3535 364.5 18.5Z" fill="#FB0404" stroke="black"/>
<path d="M157 409.5L176 407C176 407 161 377 149.5 345C138 313 134 275.5 134 275.5L80.5 280.5L29.5 288C29.5 288 28.5 299 33.5 314.5C38.5 330 45 335 45 335L48.5 349.5L71.5 371.5C71.5 371.5 86.5 385 96 391.5C105.5 398 109.5 399.5 128.5 404.5C147.5 409.5 157 409.5 157 409.5Z" fill="#FC0000" stroke="black"/>
<path d="M249.5 398L177 407.5C177 407.5 160 380.5 148 344C136 307.5 135.5 275.5 135.5 275.5L275 263.5L266 333.5L249.5 398Z" fill="#FF0000" stroke="black"/>
<path d="M526 394L549.5 383.5C549.5 383.5 560.5 340.5 563 317C565.5 293.5 563 256 563 256H418.5L275 263.5C275 263.5 268.5 307.5 265.5 329.5C262.5 351.5 252.5 389.5 252.5 389.5C252.5 389.5 245 393 275 386C305 379 326 378.5 339.5 379C353 379.5 448 389.5 448 389.5L466 394L497 414L513 410.5L526 394Z" fill="#FE0000" stroke="black"/>
<path d="M710 262.5L564.5 256C564.5 256 564.5 298 561.5 322C558.5 346 547.5 382.5 547.5 382.5L584.5 364.5L615.5 343L632.5 335.5L649 339.5L710 329.5V262.5Z" fill="#FF0000" stroke="black"/>
<path d="M646.5 6L603 13.5L631 35.5L646.5 56.5C646.5 56.5 665 78.5 676.5 110.5C688 142.5 695.5 170 695.5 170C695.5 170 700.5 191.5 704.5 210C708.5 228.5 708.5 248 708.5 248L711 331L749.5 388L786 466C786 466 818.5 457.5 830.5 449C842.5 440.5 863.5 420 863.5 420L844.5 378.5C844.5 378.5 840.5 374 840.5 359V336.5C840.5 336.5 844.75 321.5 850.5 310C856.25 298.5 867 284.5 867 284.5C867 284.5 874.5 263.5 878 228.5C881.5 193.5 870.5 145.5 870.5 145.5L844.5 69C844.5 69 844.5 52.5 835.5 35.5C826.5 18.5 810 8.5 810 8.5L784 1L755.5 3.5L725 6H646.5Z" fill="#FF0505" stroke="black"/>
</svg>
