<svg width="376" height="990" viewBox="0 0 376 990" fill="none" xmlns="http://www.w3.org/2000/svg">
<path d="M158.676 5.95675L148.827 10.0124C145.736 11.285 143.278 13.7334 141.992 16.8187C141.665 17.6042 141.259 18.3545 140.78 19.0582L134.593 28.1578C133.533 29.7158 132.623 31.3701 131.874 33.0989L128.193 41.5937C127.07 44.1849 126.319 46.9217 125.961 49.723L123.5 69L121.286 96.0136C121.096 98.33 121.176 100.661 121.524 102.959L122.754 111.076C123.247 114.327 124.37 117.451 126.062 120.27L130.777 128.128C130.92 128.367 131.148 128.546 131.414 128.63L132.457 128.955C133.542 129.295 134.242 127.828 133.296 127.198C133.105 127.07 132.964 126.879 132.899 126.658L130.144 117.361C129.385 114.8 129 112.144 129 109.473V100.124C129 98.0468 129.216 95.9756 129.644 93.9433L131.666 84.3378C132.545 80.1607 134.306 76.2194 136.83 72.7772L140.737 67.449C142.894 64.5077 145.57 61.9843 148.632 60.0028L154.992 55.8876C158.942 53.3317 163.438 51.7407 168.116 51.243L181.451 49.8244C183.478 49.6087 185.523 49.6002 187.552 49.7992L200.456 51.0643C206.664 51.6729 212.528 54.2017 217.232 58.2987L222.255 62.6737C224.407 64.5483 226.281 66.7205 227.82 69.1245L231.358 74.6524C232.78 76.8744 233.902 79.2743 234.697 81.79L238.107 92.5904C239.03 95.5129 239.5 98.5595 239.5 101.624V112.795C239.5 113.26 239.402 113.719 239.214 114.144L237.972 116.938C236.858 119.444 239.883 121.744 242 120C244.608 117.392 246.386 114.07 247.109 110.453L247.917 106.413C248.305 104.476 248.5 102.505 248.5 100.529V90L246 71.5L242 52L239.817 42.8304C239.631 42.0504 238.934 41.5 238.132 41.5C237.444 41.5 236.822 41.0928 236.546 40.4625L233.998 34.6394C233.667 33.882 233.255 33.1628 232.769 32.4942L225.5 22.5L216.448 10.1557C215.223 8.48629 213.277 7.5 211.207 7.5C210.409 7.5 209.618 7.35316 208.874 7.06681L199.383 3.4164C197.797 2.80657 196.163 2.33252 194.497 1.99935L190.383 1.1767C186.5 0.399924 182.5 0.399923 178.617 1.1767L172 2.5L163.45 4.44311C161.82 4.81372 160.223 5.32003 158.676 5.95675Z" fill="#8CEF5D" fill-opacity="0.5" stroke="white"/>
<path d="M97.2943 847.132L93.8128 845.315C90.484 843.579 86.5 845.994 86.5 849.748V853.5V870.5V889L82.6115 917.678C82.5377 918.222 82.3746 918.751 82.129 919.242L74.5 934.5L69 942.5L62 954.5L56.9706 963.721C56.3481 964.862 56.1946 966.201 56.5425 967.453L58.5 974.5L61.383 982.737C61.7809 983.874 62.5758 984.829 63.6216 985.427L67.8471 987.841C68.6026 988.273 69.4577 988.5 70.3278 988.5H79H91.2748C91.7558 988.5 92.2342 988.431 92.6953 988.294L104.463 984.807C105.146 984.605 105.779 984.258 106.317 983.792L111.275 979.495C112.37 978.546 113 977.167 113 975.717V970.5V966.307C113 963.928 114.928 962 117.307 962C118.088 962 118.854 961.788 119.523 961.386L125.553 957.768C125.85 957.59 126.128 957.381 126.382 957.145L131.402 952.484C132.421 951.538 133 950.21 133 948.82V942.5V931.026C133 930.349 132.862 929.679 132.596 929.057L130.404 923.943C130.138 923.321 130 922.651 130 921.974V916.098C130 915.375 130.157 914.66 130.46 914.003L132.54 909.497C132.843 908.84 133 908.125 133 907.402V884.5V880V869.358C133 867.891 133.756 866.528 135 865.75C136.244 864.972 137 863.609 137 862.142V857V850.479C137 848.662 134.712 847.86 133.577 849.279C133.212 849.735 132.66 850 132.076 850H126H113.414C113.138 850 112.863 849.977 112.592 849.932L98.7851 847.631C98.265 847.544 97.7618 847.376 97.2943 847.132Z" fill="#8CEF5D" fill-opacity="0.5" stroke="white"/>
<path d="M263.104 847.936L249.63 845.763C248.606 845.598 247.566 845.934 246.832 846.668C246.009 847.491 245.693 848.694 246.004 849.816L247.818 856.343C247.939 856.779 248 857.229 248 857.682V867V880.931C248 881.309 248.043 881.686 248.128 882.055L252.372 900.445C252.457 900.814 252.5 901.191 252.5 901.569V919.429C252.5 920.755 253.027 922.027 253.964 922.964L254.108 923.108C255.29 924.29 255.803 925.985 255.475 927.624L254.597 932.015C254.533 932.337 254.5 932.666 254.5 932.995V941V949.255C254.5 950.683 255.111 952.043 256.178 952.992L261.822 958.008C262.889 958.957 263.5 960.317 263.5 961.745V969V976.174C263.5 977.649 264.151 979.048 265.279 979.998L271.922 985.592C272.627 986.186 273.482 986.573 274.394 986.711L288.699 988.879C289.23 988.959 289.769 988.954 290.298 988.862L303.481 986.589C303.826 986.53 304.164 986.434 304.489 986.305L312.381 983.148C313.429 982.728 314.305 981.966 314.865 980.986L317.341 976.653C317.773 975.897 318 975.042 318 974.172V965.252C318 964.753 317.925 964.258 317.779 963.781L314.107 951.849C314.036 951.617 313.947 951.39 313.843 951.17L309.187 941.393C309.063 941.131 308.961 940.86 308.884 940.581L304 923L300.221 910.719C300.075 910.242 300 909.747 300 909.248V892V874V857.811C300 857.274 299.913 856.74 299.743 856.23L298.14 851.419C297.459 849.377 295.548 848 293.396 848H280.5H263.901C263.634 848 263.368 847.979 263.104 847.936Z" fill="#8CEF5D" fill-opacity="0.5" stroke="white"/>
<path d="M9.06454 501.827L4.84555 504.991C3.97255 505.646 3.33772 506.568 3.03793 507.617L2.69238 508.827C2.56475 509.273 2.5 509.736 2.5 510.2V511.619C2.5 512.202 2.39812 512.78 2.19897 513.328L1.29185 515.822C0.789607 517.204 0.920448 518.736 1.64961 520.012L2.5 521.5L2.97214 522.444C3.31927 523.139 3.5 523.904 3.5 524.68V540.884C3.5 541.293 3.44986 541.701 3.35071 542.097L2.64929 544.903C2.55014 545.299 2.5 545.707 2.5 546.116V547.648C2.5 548.534 2.73504 549.403 3.1811 550.168L5.57961 554.279C5.85795 554.756 6.05529 555.276 6.16362 555.818L7.39129 561.956C7.46354 562.318 7.5755 562.67 7.72513 563.007L11.279 571.003C11.4259 571.333 11.6082 571.647 11.8228 571.938L18.5 581L24 587L29.6563 595.013C29.8846 595.337 30.1506 595.632 30.4486 595.893L32.8088 597.958C33.5767 598.63 34.5624 599 35.5829 599C35.8603 599 36.137 598.973 36.409 598.918L39.8546 598.229C40.6063 598.079 41.3085 597.743 41.8974 597.252C43.1931 596.172 43.794 594.47 43.4632 592.816L43.249 591.745C43.0856 590.928 42.7206 590.165 42.1872 589.525L38 584.5L33.037 578.183C32.6817 577.731 32.407 577.221 32.2252 576.675L30.5 571.5L28.8222 563.95C28.6119 563.004 28.6812 562.017 29.0215 561.109L29.2951 560.38C29.7475 559.173 29.6627 557.845 29.4474 556.575C29.2431 555.369 29.2691 553.974 30 553C30.7134 552.049 30.4019 550.815 29.8219 549.761C29.1963 548.623 28.9684 547.219 29.6362 546.106C29.8751 545.708 30.2082 545.375 30.6063 545.136L31.1488 544.811C31.9429 544.334 32.9594 544.459 33.6142 545.114C33.8669 545.367 34.0479 545.682 34.1389 546.028L36.5 555L39.2544 561.886C39.4174 562.294 39.6334 562.678 39.8968 563.029L44.7918 569.556C45.2575 570.177 45.8615 570.681 46.5557 571.028L49.9021 572.701C50.2953 572.898 50.7289 573 51.1684 573C52.7323 573 54 571.732 54 570.168V567.5L52.5557 555.464C52.5186 555.155 52.4529 554.851 52.3592 554.554L49.5 545.5L45.5 527L43 518L41.3791 513.542C41.1294 512.856 40.7323 512.232 40.2156 511.716L39.4645 510.964C38.5268 510.027 38 508.755 38 507.429V506V502.885C38 501.979 37.7537 501.09 37.2875 500.312L37.1013 500.002C36.7065 499.344 36.1558 498.793 35.4978 498.399C34.5319 497.819 33.3892 497.608 32.2799 497.804L25.9311 498.924C25.6443 498.975 25.3535 499 25.0622 499H20H16.083C15.3693 499 14.6638 499.153 14.014 499.448L9.99553 501.275C9.66615 501.424 9.35399 501.61 9.06454 501.827Z" fill="#8CEF5D" fill-opacity="0.5" stroke="white"/>
<path d="M336.499 495.93L335.114 497.711C334.716 498.222 334.5 498.852 334.5 499.5V500.842C334.5 501.558 334.884 502.219 335.505 502.574C336.713 503.265 336.862 504.949 335.793 505.839L335 506.5L332.445 509.055C331.826 509.674 331.38 510.445 331.153 511.291L328 523L325 537.5L324 549.5V562.5V570.349C324 571.412 324.39 572.439 325.097 573.234C326.697 575.035 329.457 575.188 331.248 573.577L332.182 572.736C332.721 572.251 333.148 571.655 333.433 570.989L335.824 565.41C335.941 565.137 336.034 564.854 336.1 564.565L339 552L339.868 549.178C340.382 547.509 342.486 546.986 343.721 548.221C344.473 548.973 344.616 550.14 344.069 551.051L343.893 551.345C343.636 551.774 343.5 552.264 343.5 552.763V556.486C343.5 557.15 343.68 557.8 344.021 558.369C344.635 559.391 344.712 560.649 344.228 561.738L339 573.5L333.407 583.288C333.137 583.76 332.793 584.184 332.387 584.545L325.166 590.963C324.424 591.623 324 592.568 324 593.561C324 594.482 324.366 595.366 325.018 596.018L325.25 596.25C326.05 597.05 327.136 597.5 328.268 597.5H331.121C332.332 597.5 333.502 597.06 334.414 596.263L339.586 591.737C340.498 590.94 341.668 590.5 342.879 590.5H343.333C344.415 590.5 345.468 590.149 346.333 589.5L350.575 586.319C350.858 586.107 351.117 585.866 351.348 585.599L360.475 575.104C360.823 574.704 361.105 574.251 361.31 573.763L364.861 565.331C364.953 565.111 365.03 564.884 365.091 564.653L367.905 553.863C367.968 553.621 368.05 553.386 368.142 553.154C368.668 551.823 369.5 549.189 369.5 547C369.5 544.893 368.729 541.604 368.203 539.705C368.073 539.236 368 538.753 368 538.266V530V519.885C368 518.979 368.246 518.09 368.713 517.312L369.283 516.361C369.427 516.121 369.592 515.893 369.774 515.68L371.673 513.464C372.216 512.832 372.591 512.073 372.766 511.258L373.843 506.233C373.947 505.747 374.125 505.28 374.372 504.849L374.647 504.368C375.463 502.939 375.324 501.156 374.296 499.87C374.099 499.624 373.874 499.402 373.626 499.209L370.854 497.053C369.977 496.371 368.896 496 367.784 496H362.451C362.151 496 361.852 495.973 361.556 495.919L351.444 494.081C351.148 494.027 350.849 494 350.549 494H343.5H340.445C338.902 494 337.446 494.712 336.499 495.93Z" fill="#8CEF5D" fill-opacity="0.5" stroke="white"/>
<path d="M101.529 188.445L103.934 266.84C103.976 268.218 103.447 269.553 102.472 270.528L100.964 272.036C100.027 272.973 99.5 274.245 99.5 275.571V369.408C99.5 369.801 99.5463 370.193 99.6381 370.575L101.868 379.868C102.262 381.51 103.459 382.842 105.049 383.41L108.684 384.709C109.224 384.901 109.793 385 110.366 385H205.5H260.333C261.415 385 262.468 384.649 263.333 384L267.561 380.829C267.853 380.61 268.12 380.36 268.357 380.083L276.22 370.911C276.733 370.312 277.097 369.601 277.283 368.835L280.838 354.168C280.946 353.725 280.992 353.269 280.976 352.813L279 297L277 266.5V256.58C277 256.195 277.045 255.81 277.133 255.435L278.867 248.065C278.955 247.69 279 247.305 279 246.92V229V205V180.5V174.571C279 173.245 278.473 171.973 277.536 171.036L276 169.5L271.756 164.832C271.258 164.284 270.645 163.854 269.96 163.572L263.415 160.877C262.811 160.628 262.164 160.5 261.511 160.5H253H248.5C247.119 160.5 246 161.619 246 163V189.333C246 190.415 245.649 191.468 245 192.333L244.146 193.472C243.408 194.456 242.333 195.133 241.127 195.375L223.485 198.903C223.163 198.967 222.834 199 222.505 199H173L151.238 197.186C149.814 197.068 148.51 196.346 147.653 195.204L144.987 191.649C144.664 191.219 144.413 190.74 144.243 190.23L139 174.5L136.447 166.842C136.155 165.965 135.624 165.186 134.913 164.594C133.709 163.591 132.102 163.214 130.577 163.577L122.902 165.404C122.634 165.468 122.373 165.554 122.119 165.66L114.386 168.916C113.482 169.297 112.71 169.935 112.166 170.751L111 172.5L104.626 179.785C104.212 180.257 103.892 180.804 103.68 181.395L101.818 186.61C101.608 187.198 101.51 187.82 101.529 188.445Z" fill="#8CEF5D" fill-opacity="0.5" stroke="#FDFDFD"/>
<path d="M139.5 268.5H135.5V284.5L141 286.5L166.5 327.5L164.5 328.5L165.5 332.5L176.5 348.5V361.5L178 364L183.5 368V393.5L182.5 397H176.5L172 398.5L138 383.5H134L128.5 385L124 397V405L126.5 406.5L131.5 405L165.5 419.5L167.5 424.5L164.5 429L158.5 433.5V462L164.5 465L169 469L157 471.5L138 474.5L121 479.5L106.5 484.5L91 491L72.5 501.5L56 513L43.5 521L69 547L78.5 538.5L93.5 529.5L111.5 519L128.5 513L142 509.5L157 507L169 505H176.5V529.5L174.5 531L172 535V541L174.5 547L170.5 615.5L172 617.5L169 665.5H167V672.5H169L167 699.5L163.5 700V704L166 705.5V729.5H177L178.5 719.5H180.5H200V712L182 705.5H178.5L180.5 674.5L182 672.5V668.5L184 665.5L186.5 664H195L196.5 662.5L198.5 647.5H204L213 557.5V551.5L215.5 544.5V533.5L213 523L224 406.5L218.5 400V393.5H215.5L213 393L209 390H204.5V368L207 366.5L213 275L214.5 272.5V268.5L213 264.5H200H195L183.5 266L163.5 268.5H139.5Z" fill="#8CEF5D" fill-opacity="0.5" stroke="white"/>
<path d="M144.234 71.2658L143.464 72.0355C142.527 72.9732 142 74.245 142 75.5711V77.5V84.9861C142 85.9732 142.292 86.9383 142.84 87.7596L144.228 89.842C144.733 90.5996 145.435 91.2049 146.259 91.5926L152.616 94.5841C153.2 94.8588 153.831 95.0179 154.475 95.0527L171.248 95.9594C171.747 95.9863 172.246 95.9384 172.731 95.8174L173.254 95.6866C174.957 95.2606 176.313 93.9719 176.824 92.2917L178.782 85.8598C179.235 84.3722 180.373 83.1727 181.829 82.6267C182.901 82.2246 184.093 82.1976 185.179 82.5598L185.434 82.6447C187.035 83.1784 188.259 84.4836 188.688 86.1156L190.017 91.1648C190.328 92.3471 191.062 93.3745 192.079 94.0526L192.24 94.1603C193.062 94.7078 194.027 95 195.014 95H209.144C209.71 95 210.273 94.9036 210.808 94.715L217.18 92.4657C218.044 92.1611 218.807 91.6254 219.386 90.917L221.87 87.8814C222.601 86.9881 223 85.8694 223 84.7152V77.5V75.7997C223 74.34 222.362 72.9533 221.254 72.0034L220.396 71.2682C219.807 70.763 219.108 70.402 218.355 70.2137L214.097 69.1493C213.701 69.0501 213.293 69 212.884 69H149.907C149.307 69 148.712 69.1078 148.151 69.3184L146.014 70.1197C145.346 70.3703 144.739 70.7611 144.234 71.2658Z" fill="#8CEF5D" fill-opacity="0.5" stroke="white"/>
</svg>
