<svg width="307" height="77" viewBox="0 0 307 77" fill="none" xmlns="http://www.w3.org/2000/svg">
<rect x="46.6208" y="16.3917" width="55.8513" height="57.5661" transform="rotate(-16.4019 46.6208 16.3917)" fill="black" stroke="white"/>
<rect x="14.8993" y="2.4281" width="59.9649" height="61.8038" transform="rotate(12.498 14.8993 2.4281)" fill="#FE0000" stroke="#FDFAFB"/>
<path d="M127.078 42.9765V55H120.047V20.875H133.359C135.922 20.875 138.172 21.3437 140.109 22.2812C142.062 23.2187 143.562 24.5546 144.609 26.289C145.656 28.0078 146.18 29.9687 146.18 32.1718C146.18 35.5156 145.031 38.1562 142.734 40.0937C140.453 42.0156 137.289 42.9765 133.242 42.9765H127.078ZM127.078 37.2812H133.359C135.219 37.2812 136.633 36.8437 137.601 35.9687C138.586 35.0937 139.078 33.8437 139.078 32.2187C139.078 30.5468 138.586 29.1953 137.601 28.164C136.617 27.1328 135.258 26.6015 133.523 26.5703H127.078V37.2812ZM149.203 42.0859C149.203 39.5703 149.687 37.3281 150.656 35.3593C151.625 33.3906 153.016 31.8671 154.828 30.789C156.656 29.7109 158.773 29.1718 161.18 29.1718C164.601 29.1718 167.391 30.2187 169.547 32.3125C171.719 34.4062 172.93 37.25 173.18 40.8437L173.226 42.5781C173.226 46.4687 172.141 49.5937 169.969 51.9531C167.797 54.2968 164.883 55.4687 161.226 55.4687C157.57 55.4687 154.648 54.2968 152.461 51.9531C150.289 49.6093 149.203 46.4218 149.203 42.3906V42.0859ZM155.976 42.5781C155.976 44.9843 156.43 46.8281 157.336 48.1093C158.242 49.375 159.539 50.0078 161.226 50.0078C162.867 50.0078 164.148 49.3828 165.07 48.1328C165.992 46.8671 166.453 44.8515 166.453 42.0859C166.453 39.7265 165.992 37.8984 165.07 36.6015C164.148 35.3046 162.851 34.6562 161.18 34.6562C159.523 34.6562 158.242 35.3046 157.336 36.6015C156.43 37.8828 155.976 39.875 155.976 42.5781ZM191.648 35.9921C190.726 35.8671 189.914 35.8046 189.211 35.8046C186.648 35.8046 184.969 36.6718 184.172 38.4062V55H177.398V29.6406H183.797L183.984 32.664C185.344 30.3359 187.226 29.1718 189.633 29.1718C190.383 29.1718 191.086 29.2734 191.742 29.4765L191.648 35.9921ZM204.211 23.4062V29.6406H208.547V34.6093H204.211V47.2656C204.211 48.2031 204.391 48.875 204.75 49.2812C205.109 49.6875 205.797 49.8906 206.812 49.8906C207.562 49.8906 208.226 49.8359 208.805 49.7265V54.8593C207.476 55.2656 206.109 55.4687 204.703 55.4687C199.953 55.4687 197.531 53.0703 197.437 48.2734V34.6093H193.734V29.6406H197.437V23.4062H204.211ZM214.172 55V34.6093H210.398V29.6406H214.172V27.4843C214.172 24.6406 214.984 22.4375 216.609 20.875C218.25 19.2968 220.539 18.5078 223.476 18.5078C224.414 18.5078 225.562 18.664 226.922 18.9765L226.851 24.2265C226.289 24.0859 225.601 24.0156 224.789 24.0156C222.242 24.0156 220.969 25.2109 220.969 27.6015V29.6406H226.008V34.6093H220.969V55H214.172ZM228.469 42.0859C228.469 39.5703 228.953 37.3281 229.922 35.3593C230.891 33.3906 232.281 31.8671 234.094 30.789C235.922 29.7109 238.039 29.1718 240.445 29.1718C243.867 29.1718 246.656 30.2187 248.812 32.3125C250.984 34.4062 252.195 37.25 252.445 40.8437L252.492 42.5781C252.492 46.4687 251.406 49.5937 249.234 51.9531C247.062 54.2968 244.148 55.4687 240.492 55.4687C236.836 55.4687 233.914 54.2968 231.726 51.9531C229.555 49.6093 228.469 46.4218 228.469 42.3906V42.0859ZM235.242 42.5781C235.242 44.9843 235.695 46.8281 236.601 48.1093C237.508 49.375 238.805 50.0078 240.492 50.0078C242.133 50.0078 243.414 49.3828 244.336 48.1328C245.258 46.8671 245.719 44.8515 245.719 42.0859C245.719 39.7265 245.258 37.8984 244.336 36.6015C243.414 35.3046 242.117 34.6562 240.445 34.6562C238.789 34.6562 237.508 35.3046 236.601 36.6015C235.695 37.8828 235.242 39.875 235.242 42.5781ZM263.812 55H257.016V19H263.812V55ZM276.562 55H269.766V29.6406H276.562V55ZM269.367 23.0781C269.367 22.0625 269.703 21.2265 270.375 20.5703C271.062 19.914 271.992 19.5859 273.164 19.5859C274.32 19.5859 275.242 19.914 275.93 20.5703C276.617 21.2265 276.961 22.0625 276.961 23.0781C276.961 24.1093 276.609 24.9531 275.906 25.6093C275.219 26.2656 274.305 26.5937 273.164 26.5937C272.023 26.5937 271.101 26.2656 270.398 25.6093C269.711 24.9531 269.367 24.1093 269.367 23.0781ZM281.109 42.0859C281.109 39.5703 281.594 37.3281 282.562 35.3593C283.531 33.3906 284.922 31.8671 286.734 30.789C288.562 29.7109 290.68 29.1718 293.086 29.1718C296.508 29.1718 299.297 30.2187 301.453 32.3125C303.625 34.4062 304.836 37.25 305.086 40.8437L305.133 42.5781C305.133 46.4687 304.047 49.5937 301.875 51.9531C299.703 54.2968 296.789 55.4687 293.133 55.4687C289.476 55.4687 286.555 54.2968 284.367 51.9531C282.195 49.6093 281.109 46.4218 281.109 42.3906V42.0859ZM287.883 42.5781C287.883 44.9843 288.336 46.8281 289.242 48.1093C290.148 49.375 291.445 50.0078 293.133 50.0078C294.773 50.0078 296.055 49.3828 296.976 48.1328C297.898 46.8671 298.359 44.8515 298.359 42.0859C298.359 39.7265 297.898 37.8984 296.976 36.6015C296.055 35.3046 294.758 34.6562 293.086 34.6562C291.43 34.6562 290.148 35.3046 289.242 36.6015C288.336 37.8828 287.883 39.875 287.883 42.5781Z" fill="#020202"/>
<path d="M33.3827 20.875L40.9999 44.6171L48.5937 20.875H59.4218V55H51.1718V47.0312L51.9687 30.7187L43.7187 55H38.2812L30.0077 30.6953L30.8046 47.0312V55H22.578V20.875H33.3827ZM89.4677 35.6875L95.749 20.875H104.632L93.6396 42.7421V55H85.2958V42.7421L74.3271 20.875H83.163L89.4677 35.6875Z" fill="white"/>
<path d="M118 21V55" stroke="black"/>
</svg>
